<svg xmlns="http://www.w3.org/2000/svg" viewBox="0 0 32 32" role="img" aria-label="VoIP PBX">
  <defs>
    <linearGradient id="handset" x1="8" y1="6" x2="24" y2="26" gradientUnits="userSpaceOnUse">
      <stop offset="0" stop-color="#7eb8ff"/>
      <stop offset="1" stop-color="#3d8eef"/>
    </linearGradient>
    <linearGradient id="wave" x1="18" y1="10" x2="30" y2="22" gradientUnits="userSpaceOnUse">
      <stop offset="0" stop-color="#5b9cff"/>
      <stop offset="1" stop-color="#3dd68c"/>
    </linearGradient>
  </defs>
  <rect width="32" height="32" rx="7" fill="#0f1419"/>
  <rect x="0.5" y="0.5" width="31" height="31" rx="6.5" fill="none" stroke="#243044"/>
  <!-- IP network nodes -->
  <circle cx="24.5" cy="7.5" r="2" fill="#3dd68c"/>
  <circle cx="27.5" cy="11.5" r="1.6" fill="#5b9cff" opacity="0.9"/>
  <path d="M24.8 8.8 L26.8 10.5" stroke="#3dd68c" stroke-width="1" stroke-linecap="round" opacity="0.85"/>
  <!-- Voice waves -->
  <path d="M19 11 C21.5 13, 21.5 19, 19 21" fill="none" stroke="url(#wave)" stroke-width="1.4" stroke-linecap="round" opacity="0.95"/>
  <path d="M21.5 9 C25 12, 25 20, 21.5 23" fill="none" stroke="#5b9cff" stroke-width="1.1" stroke-linecap="round" opacity="0.55"/>
  <path d="M23.5 7 C28 11, 28 21, 23.5 25" fill="none" stroke="#5b9cff" stroke-width="0.9" stroke-linecap="round" opacity="0.3"/>
  <!-- Handset -->
  <path fill="url(#handset)" stroke="#0f1419" stroke-width="0.8" d="M9.5 8.2c-1.4 0-2.5 1.1-2.5 2.5v2.1c0 4.8 3.9 8.7 8.7 8.7h.4c1.4 0 2.5-1.1 2.5-2.5v-.8c0-.7-.4-1.3-1-1.7l-2.1-1.4c-.8-.5-1.8-.3-2.3.5l-.5.8c-.3.5-.9.7-1.4.5-1.1-.4-2.1-1-2.9-1.8-.8-.8-1.4-1.8-1.8-2.9-.2-.5 0-1.1.5-1.4l.8-.5c.8-.5 1-1.5.5-2.3l-1.4-2.1c-.4-.6-1-.9-1.7-.9h-.8z"/>
  <ellipse cx="11.8" cy="12.2" rx="1.2" ry="1.6" fill="#e7ecf1" opacity="0.35"/>
  <circle cx="14.8" cy="18.8" r="1.1" fill="#0f1419" opacity="0.35"/>
</svg>
