<svg xmlns="http://www.w3.org/2000/svg" viewBox="0 0 36 36" role="img" aria-label="VoIP PBX">
  <defs>
    <linearGradient id="handset" x1="9" y1="7" x2="27" y2="29" gradientUnits="userSpaceOnUse">
      <stop offset="0" stop-color="#7eb8ff"/>
      <stop offset="1" stop-color="#3d8eef"/>
    </linearGradient>
    <linearGradient id="wave" x1="20" y1="11" x2="34" y2="25" gradientUnits="userSpaceOnUse">
      <stop offset="0" stop-color="#5b9cff"/>
      <stop offset="1" stop-color="#3dd68c"/>
    </linearGradient>
  </defs>
  <rect width="36" height="36" rx="8" fill="#1a2332"/>
  <rect x="0.5" y="0.5" width="35" height="35" rx="7.5" fill="none" stroke="#243044"/>
  <circle cx="27.5" cy="8.5" r="2.2" fill="#3dd68c"/>
  <circle cx="31" cy="13" r="1.8" fill="#5b9cff" opacity="0.9"/>
  <path d="M28 10 L29.8 12" stroke="#3dd68c" stroke-width="1.1" stroke-linecap="round" opacity="0.85"/>
  <path d="M21.5 12.5 C24.5 15.5, 24.5 20.5, 21.5 23.5" fill="none" stroke="url(#wave)" stroke-width="1.6" stroke-linecap="round"/>
  <path d="M24.5 10 C28 13.5, 28 22.5, 24.5 26" fill="none" stroke="#5b9cff" stroke-width="1.2" stroke-linecap="round" opacity="0.55"/>
  <path d="M27 8 C32 12.5, 32 23.5, 27 28" fill="none" stroke="#5b9cff" stroke-width="1" stroke-linecap="round" opacity="0.3"/>
  <path fill="url(#handset)" stroke="#141c28" stroke-width="0.9" d="M10.5 9.2c-1.6 0-2.9 1.3-2.9 2.9v2.4c0 5.4 4.4 9.8 9.8 9.8h.5c1.6 0 2.9-1.3 2.9-2.9v-.9c0-.8-.4-1.5-1.1-1.9l-2.4-1.6c-.9-.6-2-.3-2.6.6l-.6.9c-.3.6-.9.8-1.6.6-1.2-.5-2.3-1.1-3.2-2-.9-.9-1.6-2-2-3.2-.2-.6 0-1.2.6-1.6l.9-.6c.9-.6 1.1-1.7.6-2.6l-1.6-2.4c-.5-.7-1.1-1-1.9-1h-.9z"/>
  <ellipse cx="13.2" cy="13.8" rx="1.4" ry="1.8" fill="#e7ecf1" opacity="0.35"/>
</svg>
